<mxfile host="app.diagrams.net" modified="2023-06-08T16:08:38.811Z" agent="Mozilla/5.0 (X11; Linux x86_64; rv:109.0) Gecko/20100101 Firefox/115.0" etag="SY9uoNETwqhQ4ysV30Fn" version="21.3.7" type="github">
  <diagram name="Page-1" id="ANNzdUTWWgWOw5J_fOWs">
    <mxGraphModel dx="1114" dy="607" grid="1" gridSize="10" guides="1" tooltips="1" connect="1" arrows="1" fold="1" page="1" pageScale="1" pageWidth="850" pageHeight="1100" math="0" shadow="0">
      <root>
        <mxCell id="0" />
        <mxCell id="1" parent="0" />
        <mxCell id="qtU8ncWE7qNnRgWixLhR-1" value="" style="image;aspect=fixed;html=1;points=[];align=center;fontSize=12;image=img/lib/azure2/networking/DNS_Zones.svg;" vertex="1" parent="1">
          <mxGeometry x="90" y="40" width="64" height="64" as="geometry" />
        </mxCell>
        <mxCell id="qtU8ncWE7qNnRgWixLhR-5" value="Jojothomas.tech" style="edgeStyle=orthogonalEdgeStyle;rounded=0;orthogonalLoop=1;jettySize=auto;html=1;exitX=0;exitY=0.5;exitDx=0;exitDy=0;exitPerimeter=0;entryX=0.984;entryY=0.516;entryDx=0;entryDy=0;entryPerimeter=0;" edge="1" parent="1" source="qtU8ncWE7qNnRgWixLhR-3" target="qtU8ncWE7qNnRgWixLhR-1">
          <mxGeometry relative="1" as="geometry" />
        </mxCell>
        <mxCell id="qtU8ncWE7qNnRgWixLhR-9" value="" style="edgeStyle=orthogonalEdgeStyle;rounded=0;orthogonalLoop=1;jettySize=auto;html=1;" edge="1" parent="1" source="qtU8ncWE7qNnRgWixLhR-10" target="qtU8ncWE7qNnRgWixLhR-8">
          <mxGeometry relative="1" as="geometry" />
        </mxCell>
        <mxCell id="qtU8ncWE7qNnRgWixLhR-3" value="" style="outlineConnect=0;dashed=0;verticalLabelPosition=bottom;verticalAlign=top;align=center;html=1;shape=mxgraph.aws3.management_console;fillColor=#D2D3D3;gradientColor=none;" vertex="1" parent="1">
          <mxGeometry x="330" y="30" width="63" height="63" as="geometry" />
        </mxCell>
        <mxCell id="qtU8ncWE7qNnRgWixLhR-29" style="edgeStyle=orthogonalEdgeStyle;rounded=0;orthogonalLoop=1;jettySize=auto;html=1;exitX=0.5;exitY=1;exitDx=0;exitDy=0;exitPerimeter=0;entryX=1;entryY=0.5;entryDx=0;entryDy=0;entryPerimeter=0;" edge="1" parent="1" source="qtU8ncWE7qNnRgWixLhR-8" target="qtU8ncWE7qNnRgWixLhR-26">
          <mxGeometry relative="1" as="geometry" />
        </mxCell>
        <mxCell id="qtU8ncWE7qNnRgWixLhR-50" style="edgeStyle=orthogonalEdgeStyle;rounded=0;orthogonalLoop=1;jettySize=auto;html=1;exitX=0.5;exitY=1;exitDx=0;exitDy=0;exitPerimeter=0;entryX=0;entryY=0.5;entryDx=0;entryDy=0;entryPerimeter=0;" edge="1" parent="1" source="qtU8ncWE7qNnRgWixLhR-8" target="qtU8ncWE7qNnRgWixLhR-43">
          <mxGeometry relative="1" as="geometry" />
        </mxCell>
        <mxCell id="qtU8ncWE7qNnRgWixLhR-53" style="edgeStyle=orthogonalEdgeStyle;rounded=0;orthogonalLoop=1;jettySize=auto;html=1;exitX=0.5;exitY=0;exitDx=0;exitDy=0;exitPerimeter=0;" edge="1" parent="1" source="qtU8ncWE7qNnRgWixLhR-8" target="qtU8ncWE7qNnRgWixLhR-10">
          <mxGeometry relative="1" as="geometry" />
        </mxCell>
        <mxCell id="qtU8ncWE7qNnRgWixLhR-8" value="" style="outlineConnect=0;dashed=0;verticalLabelPosition=bottom;verticalAlign=top;align=center;html=1;shape=mxgraph.aws3.application_load_balancer;fillColor=#F58534;gradientColor=none;" vertex="1" parent="1">
          <mxGeometry x="343" y="300" width="69" height="72" as="geometry" />
        </mxCell>
        <mxCell id="qtU8ncWE7qNnRgWixLhR-11" value="" style="edgeStyle=orthogonalEdgeStyle;rounded=0;orthogonalLoop=1;jettySize=auto;html=1;" edge="1" parent="1" source="qtU8ncWE7qNnRgWixLhR-12" target="qtU8ncWE7qNnRgWixLhR-10">
          <mxGeometry relative="1" as="geometry">
            <mxPoint x="362" y="93" as="sourcePoint" />
            <mxPoint x="362" y="250" as="targetPoint" />
          </mxGeometry>
        </mxCell>
        <mxCell id="qtU8ncWE7qNnRgWixLhR-54" style="edgeStyle=orthogonalEdgeStyle;rounded=0;orthogonalLoop=1;jettySize=auto;html=1;exitX=0.5;exitY=0;exitDx=0;exitDy=0;exitPerimeter=0;entryX=0.429;entryY=1;entryDx=0;entryDy=0;entryPerimeter=0;" edge="1" parent="1" source="qtU8ncWE7qNnRgWixLhR-10" target="qtU8ncWE7qNnRgWixLhR-12">
          <mxGeometry relative="1" as="geometry" />
        </mxCell>
        <mxCell id="qtU8ncWE7qNnRgWixLhR-10" value="" style="outlineConnect=0;dashed=0;verticalLabelPosition=bottom;verticalAlign=top;align=center;html=1;shape=mxgraph.aws3.ssl_padlock;fillColor=#D2D3D3;gradientColor=none;" vertex="1" parent="1">
          <mxGeometry x="346" y="190" width="63" height="78" as="geometry" />
        </mxCell>
        <mxCell id="qtU8ncWE7qNnRgWixLhR-13" value="" style="edgeStyle=orthogonalEdgeStyle;rounded=0;orthogonalLoop=1;jettySize=auto;html=1;" edge="1" parent="1" source="qtU8ncWE7qNnRgWixLhR-3" target="qtU8ncWE7qNnRgWixLhR-12">
          <mxGeometry relative="1" as="geometry">
            <mxPoint x="362" y="93" as="sourcePoint" />
            <mxPoint x="362" y="180" as="targetPoint" />
          </mxGeometry>
        </mxCell>
        <mxCell id="qtU8ncWE7qNnRgWixLhR-12" value="" style="image;aspect=fixed;html=1;points=[];align=center;fontSize=12;image=img/lib/azure2/networking/Azure_Firewall_Manager.svg;" vertex="1" parent="1">
          <mxGeometry x="346" y="130" width="70" height="60" as="geometry" />
        </mxCell>
        <mxCell id="qtU8ncWE7qNnRgWixLhR-23" value="" style="rounded=1;arcSize=10;strokeColor=none;fillColor=#DBDBDB;gradientColor=none;" vertex="1" parent="1">
          <mxGeometry x="154" y="470" width="199.5" height="199.5" as="geometry" />
        </mxCell>
        <mxCell id="qtU8ncWE7qNnRgWixLhR-31" style="edgeStyle=orthogonalEdgeStyle;rounded=0;orthogonalLoop=1;jettySize=auto;html=1;entryX=0;entryY=0.5;entryDx=0;entryDy=0;" edge="1" parent="1" source="qtU8ncWE7qNnRgWixLhR-24" target="qtU8ncWE7qNnRgWixLhR-30">
          <mxGeometry relative="1" as="geometry" />
        </mxCell>
        <mxCell id="qtU8ncWE7qNnRgWixLhR-24" value="" style="image;aspect=fixed;perimeter=ellipsePerimeter;html=1;align=center;shadow=0;dashed=0;spacingTop=3;image=img/lib/active_directory/web_server.svg;" vertex="1" parent="1">
          <mxGeometry x="190" y="496.5" width="40" height="50" as="geometry" />
        </mxCell>
        <mxCell id="qtU8ncWE7qNnRgWixLhR-28" style="edgeStyle=orthogonalEdgeStyle;rounded=0;orthogonalLoop=1;jettySize=auto;html=1;entryX=0.5;entryY=0;entryDx=0;entryDy=0;" edge="1" parent="1" source="qtU8ncWE7qNnRgWixLhR-26" target="qtU8ncWE7qNnRgWixLhR-23">
          <mxGeometry relative="1" as="geometry" />
        </mxCell>
        <mxCell id="qtU8ncWE7qNnRgWixLhR-26" value="" style="outlineConnect=0;dashed=0;verticalLabelPosition=bottom;verticalAlign=top;align=center;html=1;shape=mxgraph.aws3.traditional_server;fillColor=#7D7C7C;gradientColor=none;" vertex="1" parent="1">
          <mxGeometry x="230" y="372" width="46.5" height="63" as="geometry" />
        </mxCell>
        <mxCell id="qtU8ncWE7qNnRgWixLhR-33" value="" style="edgeStyle=elbowEdgeStyle;rounded=0;orthogonalLoop=1;jettySize=auto;html=1;elbow=vertical;" edge="1" parent="1" source="qtU8ncWE7qNnRgWixLhR-30" target="qtU8ncWE7qNnRgWixLhR-32">
          <mxGeometry relative="1" as="geometry" />
        </mxCell>
        <mxCell id="qtU8ncWE7qNnRgWixLhR-36" style="edgeStyle=elbowEdgeStyle;rounded=0;orthogonalLoop=1;jettySize=auto;html=1;exitX=0;exitY=1;exitDx=0;exitDy=0;entryX=1;entryY=0.5;entryDx=0;entryDy=0;" edge="1" parent="1" source="qtU8ncWE7qNnRgWixLhR-30" target="qtU8ncWE7qNnRgWixLhR-34">
          <mxGeometry relative="1" as="geometry" />
        </mxCell>
        <mxCell id="qtU8ncWE7qNnRgWixLhR-37" style="edgeStyle=orthogonalEdgeStyle;rounded=0;orthogonalLoop=1;jettySize=auto;html=1;exitX=0;exitY=0.5;exitDx=0;exitDy=0;" edge="1" parent="1" source="qtU8ncWE7qNnRgWixLhR-30" target="qtU8ncWE7qNnRgWixLhR-24">
          <mxGeometry relative="1" as="geometry" />
        </mxCell>
        <mxCell id="qtU8ncWE7qNnRgWixLhR-30" value="" style="image;aspect=fixed;perimeter=ellipsePerimeter;html=1;align=center;shadow=0;dashed=0;fontColor=#4277BB;labelBackgroundColor=default;fontSize=12;spacingTop=3;image=img/lib/ibm/applications/app_server.svg;" vertex="1" parent="1">
          <mxGeometry x="280" y="490" width="63" height="63" as="geometry" />
        </mxCell>
        <mxCell id="qtU8ncWE7qNnRgWixLhR-32" value="" style="verticalLabelPosition=bottom;html=1;verticalAlign=top;align=center;strokeColor=none;fillColor=#00BEF2;shape=mxgraph.azure.code_file;pointerEvents=1;" vertex="1" parent="1">
          <mxGeometry x="287.75" y="590" width="47.5" height="50" as="geometry" />
        </mxCell>
        <mxCell id="qtU8ncWE7qNnRgWixLhR-81" style="edgeStyle=elbowEdgeStyle;rounded=0;orthogonalLoop=1;jettySize=auto;html=1;exitX=1;exitY=0.5;exitDx=0;exitDy=0;entryX=0;entryY=1;entryDx=0;entryDy=0;" edge="1" parent="1" source="qtU8ncWE7qNnRgWixLhR-34" target="qtU8ncWE7qNnRgWixLhR-30">
          <mxGeometry relative="1" as="geometry" />
        </mxCell>
        <mxCell id="qtU8ncWE7qNnRgWixLhR-34" value="" style="shape=datastore;whiteSpace=wrap;html=1;" vertex="1" parent="1">
          <mxGeometry x="190" y="580" width="60" height="60" as="geometry" />
        </mxCell>
        <mxCell id="qtU8ncWE7qNnRgWixLhR-39" value="" style="rounded=1;arcSize=10;strokeColor=none;fillColor=#DBDBDB;gradientColor=none;" vertex="1" parent="1">
          <mxGeometry x="425" y="470" width="199.5" height="199.5" as="geometry" />
        </mxCell>
        <mxCell id="qtU8ncWE7qNnRgWixLhR-40" style="edgeStyle=orthogonalEdgeStyle;rounded=0;orthogonalLoop=1;jettySize=auto;html=1;entryX=0;entryY=0.5;entryDx=0;entryDy=0;" edge="1" source="qtU8ncWE7qNnRgWixLhR-41" target="qtU8ncWE7qNnRgWixLhR-47" parent="1">
          <mxGeometry relative="1" as="geometry" />
        </mxCell>
        <mxCell id="qtU8ncWE7qNnRgWixLhR-41" value="" style="image;aspect=fixed;perimeter=ellipsePerimeter;html=1;align=center;shadow=0;dashed=0;spacingTop=3;image=img/lib/active_directory/web_server.svg;" vertex="1" parent="1">
          <mxGeometry x="461" y="495" width="40" height="50" as="geometry" />
        </mxCell>
        <mxCell id="qtU8ncWE7qNnRgWixLhR-42" style="edgeStyle=orthogonalEdgeStyle;rounded=0;orthogonalLoop=1;jettySize=auto;html=1;entryX=0.5;entryY=0;entryDx=0;entryDy=0;" edge="1" source="qtU8ncWE7qNnRgWixLhR-43" target="qtU8ncWE7qNnRgWixLhR-39" parent="1">
          <mxGeometry relative="1" as="geometry" />
        </mxCell>
        <mxCell id="qtU8ncWE7qNnRgWixLhR-51" style="edgeStyle=orthogonalEdgeStyle;rounded=0;orthogonalLoop=1;jettySize=auto;html=1;exitX=0;exitY=0.5;exitDx=0;exitDy=0;exitPerimeter=0;entryX=0.5;entryY=1;entryDx=0;entryDy=0;entryPerimeter=0;" edge="1" parent="1" source="qtU8ncWE7qNnRgWixLhR-43" target="qtU8ncWE7qNnRgWixLhR-8">
          <mxGeometry relative="1" as="geometry" />
        </mxCell>
        <mxCell id="qtU8ncWE7qNnRgWixLhR-43" value="" style="outlineConnect=0;dashed=0;verticalLabelPosition=bottom;verticalAlign=top;align=center;html=1;shape=mxgraph.aws3.traditional_server;fillColor=#7D7C7C;gradientColor=none;" vertex="1" parent="1">
          <mxGeometry x="501" y="372" width="46.5" height="63" as="geometry" />
        </mxCell>
        <mxCell id="qtU8ncWE7qNnRgWixLhR-44" value="" style="edgeStyle=elbowEdgeStyle;rounded=0;orthogonalLoop=1;jettySize=auto;html=1;elbow=vertical;" edge="1" source="qtU8ncWE7qNnRgWixLhR-47" target="qtU8ncWE7qNnRgWixLhR-48" parent="1">
          <mxGeometry relative="1" as="geometry" />
        </mxCell>
        <mxCell id="qtU8ncWE7qNnRgWixLhR-45" style="edgeStyle=elbowEdgeStyle;rounded=0;orthogonalLoop=1;jettySize=auto;html=1;exitX=0;exitY=1;exitDx=0;exitDy=0;entryX=1;entryY=0.5;entryDx=0;entryDy=0;" edge="1" source="qtU8ncWE7qNnRgWixLhR-47" target="qtU8ncWE7qNnRgWixLhR-49" parent="1">
          <mxGeometry relative="1" as="geometry" />
        </mxCell>
        <mxCell id="qtU8ncWE7qNnRgWixLhR-46" style="edgeStyle=orthogonalEdgeStyle;rounded=0;orthogonalLoop=1;jettySize=auto;html=1;exitX=0;exitY=0.5;exitDx=0;exitDy=0;" edge="1" source="qtU8ncWE7qNnRgWixLhR-47" target="qtU8ncWE7qNnRgWixLhR-41" parent="1">
          <mxGeometry relative="1" as="geometry" />
        </mxCell>
        <mxCell id="qtU8ncWE7qNnRgWixLhR-47" value="" style="image;aspect=fixed;perimeter=ellipsePerimeter;html=1;align=center;shadow=0;dashed=0;fontColor=#4277BB;labelBackgroundColor=default;fontSize=12;spacingTop=3;image=img/lib/ibm/applications/app_server.svg;" vertex="1" parent="1">
          <mxGeometry x="551" y="490" width="60" height="60" as="geometry" />
        </mxCell>
        <mxCell id="qtU8ncWE7qNnRgWixLhR-48" value="" style="verticalLabelPosition=bottom;html=1;verticalAlign=top;align=center;strokeColor=none;fillColor=#00BEF2;shape=mxgraph.azure.code_file;pointerEvents=1;" vertex="1" parent="1">
          <mxGeometry x="557.25" y="590" width="47.5" height="50" as="geometry" />
        </mxCell>
        <mxCell id="qtU8ncWE7qNnRgWixLhR-82" style="edgeStyle=elbowEdgeStyle;rounded=0;orthogonalLoop=1;jettySize=auto;html=1;exitX=1;exitY=0.5;exitDx=0;exitDy=0;entryX=0;entryY=1;entryDx=0;entryDy=0;" edge="1" parent="1" source="qtU8ncWE7qNnRgWixLhR-49" target="qtU8ncWE7qNnRgWixLhR-47">
          <mxGeometry relative="1" as="geometry" />
        </mxCell>
        <mxCell id="qtU8ncWE7qNnRgWixLhR-49" value="" style="shape=datastore;whiteSpace=wrap;html=1;" vertex="1" parent="1">
          <mxGeometry x="461" y="580" width="60" height="60" as="geometry" />
        </mxCell>
        <mxCell id="qtU8ncWE7qNnRgWixLhR-59" value="" style="edgeStyle=orthogonalEdgeStyle;rounded=0;orthogonalLoop=1;jettySize=auto;html=1;" edge="1" parent="1" source="qtU8ncWE7qNnRgWixLhR-56" target="qtU8ncWE7qNnRgWixLhR-43">
          <mxGeometry relative="1" as="geometry" />
        </mxCell>
        <mxCell id="qtU8ncWE7qNnRgWixLhR-56" value="web-02" style="rounded=1;align=center;fillColor=#F1F2F4;strokeColor=none;html=1;whiteSpace=wrap;fontColor=#596780;fontSize=12" vertex="1" parent="1">
          <mxGeometry x="604.75" y="380" width="80" height="33" as="geometry" />
        </mxCell>
        <mxCell id="qtU8ncWE7qNnRgWixLhR-58" style="edgeStyle=orthogonalEdgeStyle;rounded=0;orthogonalLoop=1;jettySize=auto;html=1;" edge="1" parent="1" source="qtU8ncWE7qNnRgWixLhR-57" target="qtU8ncWE7qNnRgWixLhR-26">
          <mxGeometry relative="1" as="geometry" />
        </mxCell>
        <mxCell id="qtU8ncWE7qNnRgWixLhR-57" value="web-01" style="rounded=1;align=center;fillColor=#F1F2F4;strokeColor=none;html=1;whiteSpace=wrap;fontColor=#596780;fontSize=12" vertex="1" parent="1">
          <mxGeometry x="74" y="383" width="80" height="33" as="geometry" />
        </mxCell>
        <mxCell id="qtU8ncWE7qNnRgWixLhR-64" style="edgeStyle=orthogonalEdgeStyle;rounded=0;orthogonalLoop=1;jettySize=auto;html=1;exitX=1;exitY=0.5;exitDx=0;exitDy=0;" edge="1" parent="1" source="qtU8ncWE7qNnRgWixLhR-63" target="qtU8ncWE7qNnRgWixLhR-8">
          <mxGeometry relative="1" as="geometry" />
        </mxCell>
        <mxCell id="qtU8ncWE7qNnRgWixLhR-63" value="load balancer" style="rounded=1;align=center;fillColor=#F1F2F4;strokeColor=none;html=1;whiteSpace=wrap;fontColor=#596780;fontSize=12" vertex="1" parent="1">
          <mxGeometry x="180" y="268" width="80" height="33" as="geometry" />
        </mxCell>
        <mxCell id="qtU8ncWE7qNnRgWixLhR-67" style="edgeStyle=orthogonalEdgeStyle;rounded=0;orthogonalLoop=1;jettySize=auto;html=1;entryX=0.97;entryY=0.5;entryDx=0;entryDy=0;entryPerimeter=0;" edge="1" parent="1" source="qtU8ncWE7qNnRgWixLhR-65" target="qtU8ncWE7qNnRgWixLhR-10">
          <mxGeometry relative="1" as="geometry" />
        </mxCell>
        <mxCell id="qtU8ncWE7qNnRgWixLhR-65" value="SSS/TSL" style="rounded=1;align=center;fillColor=#F1F2F4;strokeColor=none;html=1;whiteSpace=wrap;fontColor=#596780;fontSize=12" vertex="1" parent="1">
          <mxGeometry x="484" y="213" width="80" height="33" as="geometry" />
        </mxCell>
        <mxCell id="qtU8ncWE7qNnRgWixLhR-68" style="edgeStyle=orthogonalEdgeStyle;rounded=0;orthogonalLoop=1;jettySize=auto;html=1;" edge="1" parent="1" source="qtU8ncWE7qNnRgWixLhR-66" target="qtU8ncWE7qNnRgWixLhR-12">
          <mxGeometry relative="1" as="geometry" />
        </mxCell>
        <mxCell id="qtU8ncWE7qNnRgWixLhR-66" value="&lt;div&gt;ufw Firewall&lt;/div&gt;" style="rounded=1;align=center;fillColor=#F1F2F4;strokeColor=none;html=1;whiteSpace=wrap;fontColor=#596780;fontSize=12" vertex="1" parent="1">
          <mxGeometry x="477.25" y="143.5" width="80" height="33" as="geometry" />
        </mxCell>
        <mxCell id="qtU8ncWE7qNnRgWixLhR-70" style="edgeStyle=orthogonalEdgeStyle;rounded=0;orthogonalLoop=1;jettySize=auto;html=1;entryX=1;entryY=0.5;entryDx=0;entryDy=0;entryPerimeter=0;" edge="1" parent="1" source="qtU8ncWE7qNnRgWixLhR-69" target="qtU8ncWE7qNnRgWixLhR-3">
          <mxGeometry relative="1" as="geometry" />
        </mxCell>
        <mxCell id="qtU8ncWE7qNnRgWixLhR-69" value="&lt;div&gt;client device&lt;/div&gt;" style="rounded=1;align=center;fillColor=#F1F2F4;strokeColor=none;html=1;whiteSpace=wrap;fontColor=#596780;fontSize=12" vertex="1" parent="1">
          <mxGeometry x="485" y="40" width="80" height="33" as="geometry" />
        </mxCell>
        <mxCell id="qtU8ncWE7qNnRgWixLhR-72" style="edgeStyle=orthogonalEdgeStyle;rounded=0;orthogonalLoop=1;jettySize=auto;html=1;" edge="1" parent="1" source="qtU8ncWE7qNnRgWixLhR-71" target="qtU8ncWE7qNnRgWixLhR-1">
          <mxGeometry relative="1" as="geometry" />
        </mxCell>
        <mxCell id="qtU8ncWE7qNnRgWixLhR-71" value=".tech dns server" style="rounded=1;align=center;fillColor=#F1F2F4;strokeColor=none;html=1;whiteSpace=wrap;fontColor=#596780;fontSize=12" vertex="1" parent="1">
          <mxGeometry x="80" y="160" width="90" height="30" as="geometry" />
        </mxCell>
        <mxCell id="qtU8ncWE7qNnRgWixLhR-74" style="edgeStyle=orthogonalEdgeStyle;rounded=0;orthogonalLoop=1;jettySize=auto;html=1;" edge="1" parent="1" source="qtU8ncWE7qNnRgWixLhR-73" target="qtU8ncWE7qNnRgWixLhR-47">
          <mxGeometry relative="1" as="geometry" />
        </mxCell>
        <mxCell id="qtU8ncWE7qNnRgWixLhR-73" value="&lt;div&gt;app server&lt;/div&gt;&lt;div&gt;gunicorn&lt;/div&gt;" style="rounded=1;align=center;fillColor=#F1F2F4;strokeColor=none;html=1;whiteSpace=wrap;fontColor=#596780;fontSize=12" vertex="1" parent="1">
          <mxGeometry x="700" y="503.5" width="80" height="33" as="geometry" />
        </mxCell>
        <mxCell id="qtU8ncWE7qNnRgWixLhR-76" style="edgeStyle=orthogonalEdgeStyle;rounded=0;orthogonalLoop=1;jettySize=auto;html=1;entryX=0.753;entryY=0.68;entryDx=0;entryDy=0;entryPerimeter=0;" edge="1" parent="1" source="qtU8ncWE7qNnRgWixLhR-75" target="qtU8ncWE7qNnRgWixLhR-48">
          <mxGeometry relative="1" as="geometry" />
        </mxCell>
        <mxCell id="qtU8ncWE7qNnRgWixLhR-75" value="&lt;div&gt;code base&lt;/div&gt;&lt;div&gt;python/flask&lt;br&gt;&lt;/div&gt;" style="rounded=1;align=center;fillColor=#F1F2F4;strokeColor=none;html=1;whiteSpace=wrap;fontColor=#596780;fontSize=12" vertex="1" parent="1">
          <mxGeometry x="700" y="590" width="80" height="70" as="geometry" />
        </mxCell>
        <mxCell id="qtU8ncWE7qNnRgWixLhR-78" value="" style="edgeStyle=orthogonalEdgeStyle;rounded=0;orthogonalLoop=1;jettySize=auto;html=1;" edge="1" parent="1" source="qtU8ncWE7qNnRgWixLhR-77" target="qtU8ncWE7qNnRgWixLhR-24">
          <mxGeometry relative="1" as="geometry" />
        </mxCell>
        <mxCell id="qtU8ncWE7qNnRgWixLhR-77" value="&lt;div&gt;Web server&lt;/div&gt;&lt;div&gt;Nginx&lt;br&gt;&lt;/div&gt;" style="rounded=1;align=center;fillColor=#F1F2F4;strokeColor=none;html=1;whiteSpace=wrap;fontColor=#596780;fontSize=12" vertex="1" parent="1">
          <mxGeometry x="30" y="505" width="80" height="33" as="geometry" />
        </mxCell>
        <mxCell id="qtU8ncWE7qNnRgWixLhR-80" value="" style="edgeStyle=orthogonalEdgeStyle;rounded=0;orthogonalLoop=1;jettySize=auto;html=1;" edge="1" parent="1" source="qtU8ncWE7qNnRgWixLhR-79" target="qtU8ncWE7qNnRgWixLhR-34">
          <mxGeometry relative="1" as="geometry" />
        </mxCell>
        <mxCell id="qtU8ncWE7qNnRgWixLhR-79" value="database" style="rounded=1;align=center;fillColor=#F1F2F4;strokeColor=none;html=1;whiteSpace=wrap;fontColor=#596780;fontSize=12" vertex="1" parent="1">
          <mxGeometry x="30" y="590" width="80" height="33" as="geometry" />
        </mxCell>
      </root>
    </mxGraphModel>
  </diagram>
</mxfile>
